HIERARCHY
ROOT Hips
{
  OFFSET 5.84602e-005 68.8428 3.50346
  CHANNELS 6 Xposition Yposition Zposition Zrotation Xrotation Yrotation
  JOINT Spine
  {
    OFFSET 0 8.597 -4.6522
    CHANNELS 3 Zrotation Xrotation Yrotation
    JOINT Spine1
    {
      OFFSET 0 7.8454 0.4098
      CHANNELS 3 Zrotation Xrotation Yrotation
      JOINT Spine2
      {
        OFFSET 0 9.7078 -2.1609
        CHANNELS 3 Zrotation Xrotation Yrotation
        JOINT Neck
        {
          OFFSET 0 21.8761 -0.4549
          CHANNELS 3 Zrotation Xrotation Yrotation
          JOINT Head
          {
            OFFSET 0 12.3537 3.3602
            CHANNELS 3 Zrotation Xrotation Yrotation
            End Site
            {
              OFFSET 0.0001 18.9506 0.5657
            }
          }
        }
        JOINT LeftShoulder
        {
          OFFSET 2.2086 21.1115 7.2329
          CHANNELS 3 Zrotation Xrotation Yrotation
          JOINT LeftArm
          {
            OFFSET 13.1193 3.0282 -4.8998
            CHANNELS 3 Zrotation Xrotation Yrotation
            JOINT LeftForeArm
            {
              OFFSET 27.4081 -0.0973053 -0.2375
              CHANNELS 3 Zrotation Xrotation Yrotation
              JOINT LeftHand
              {
                OFFSET 22.8641 0.0662994 -0.1369
                CHANNELS 3 Zrotation Xrotation Yrotation
                JOINT LeftHandIndex1
                {
                  OFFSET 8.8614 0.775009 2.4612
                  CHANNELS 3 Zrotation Xrotation Yrotation
                  JOINT LeftHandIndex2
                  {
                    OFFSET 3.3146 -0.808304 0.5841
                    CHANNELS 3 Zrotation Xrotation Yrotation
                    JOINT LeftHandIndex3
                    {
                      OFFSET 2.2628 -0.552002 0.3989
                      CHANNELS 3 Zrotation Xrotation Yrotation
                      End Site
                      {
                        OFFSET 1.6102 -0.4807 0.2612
                      }
                    }
                  }
                }
                JOINT LeftHandMiddle1
                {
                  OFFSET 8.9937 0.895004 0.2143
                  CHANNELS 3 Zrotation Xrotation Yrotation
                  JOINT LeftHandMiddle2
                  {
                    OFFSET 4.0984 0.0113983 -0.0242
                    CHANNELS 3 Zrotation Xrotation Yrotation
                    JOINT LeftHandMiddle3
                    {
                      OFFSET 2.2716 0.00689697 -0.0138001
                      CHANNELS 3 Zrotation Xrotation Yrotation
                      End Site
                      {
                        OFFSET 2.0404 -0.1441 0.0027
                      }
                    }
                  }
                }
                JOINT LeftHandRing1
                {
                  OFFSET 8.5234 0.597198 -2.0164
                  CHANNELS 3 Zrotation Xrotation Yrotation
                  JOINT LeftHandRing2
                  {
                    OFFSET 3.7188 -0.188293 -0.2328
                    CHANNELS 3 Zrotation Xrotation Yrotation
                    JOINT LeftHandRing3
                    {
                      OFFSET 2.1191 -0.106598 -0.1332
                      CHANNELS 3 Zrotation Xrotation Yrotation
                      End Site
                      {
                        OFFSET 1.8737 -0.2304 -0.0886
                      }
                    }
                  }
                }
                JOINT LeftHandPinky1
                {
                  OFFSET 7.9094 -0.601089 -3.4825
                  CHANNELS 3 Zrotation Xrotation Yrotation
                  JOINT LeftHandPinky2
                  {
                    OFFSET 2.2874 -0.477005 -0.6314
                    CHANNELS 3 Zrotation Xrotation Yrotation
                    JOINT LeftHandPinky3
                    {
                      OFFSET 1.6774 -0.349396 -0.4633
                      CHANNELS 3 Zrotation Xrotation Yrotation
                      End Site
                      {
                        OFFSET 1.4888 -0.4091 -0.3416
                      }
                    }
                  }
                }
                JOINT LeftHandThumb1
                {
                  OFFSET 1.833 -1.3875 1.3896
                  CHANNELS 3 Zrotation Xrotation Yrotation
                  JOINT LeftHandThumb2
                  {
                    OFFSET 3.4129 -1.121 2.5732
                    CHANNELS 3 Zrotation Xrotation Yrotation
                    JOINT LeftHandThumb3
                    {
                      OFFSET 2.2474 -0.804199 1.6192
                      CHANNELS 3 Zrotation Xrotation Yrotation
                      End Site
                      {
                        OFFSET 1.6527 -0.5689 1.1317
                      }
                    }
                  }
                }
              }
            }
          }
        }
        JOINT RightShoulder
        {
          OFFSET -2.2086 21.1115 7.2329
          CHANNELS 3 Zrotation Xrotation Yrotation
          JOINT RightArm
          {
            OFFSET -13.1216 3.0287 -4.9007
            CHANNELS 3 Zrotation Xrotation Yrotation
            JOINT RightForeArm
            {
              OFFSET -27.4081 -0.0973053 -0.2375
              CHANNELS 3 Zrotation Xrotation Yrotation
              JOINT RightHand
              {
                OFFSET -22.8641 0.0664063 -0.1369
                CHANNELS 3 Zrotation Xrotation Yrotation
                JOINT RightHandIndex1
                {
                  OFFSET -8.8614 0.774994 2.4612
                  CHANNELS 3 Zrotation Xrotation Yrotation
                  JOINT RightHandIndex2
                  {
                    OFFSET -3.3146 -0.808304 0.5841
                    CHANNELS 3 Zrotation Xrotation Yrotation
                    JOINT RightHandIndex3
                    {
                      OFFSET -2.2628 -0.552002 0.3989
                      CHANNELS 3 Zrotation Xrotation Yrotation
                      End Site
                      {
                        OFFSET -1.6102 -0.4807 0.2612
                      }
                    }
                  }
                }
                JOINT RightHandMiddle1
                {
                  OFFSET -8.9937 0.894989 0.2143
                  CHANNELS 3 Zrotation Xrotation Yrotation
                  JOINT RightHandMiddle2
                  {
                    OFFSET -4.0984 0.0113983 -0.0242
                    CHANNELS 3 Zrotation Xrotation Yrotation
                    JOINT RightHandMiddle3
                    {
                      OFFSET -2.2716 0.00691223 -0.0138001
                      CHANNELS 3 Zrotation Xrotation Yrotation
                      End Site
                      {
                        OFFSET -2.0404 -0.1441 0.0027
                      }
                    }
                  }
                }
                JOINT RightHandRing1
                {
                  OFFSET -8.5234 0.597198 -2.0164
                  CHANNELS 3 Zrotation Xrotation Yrotation
                  JOINT RightHandRing2
                  {
                    OFFSET -3.7188 -0.188309 -0.2328
                    CHANNELS 3 Zrotation Xrotation Yrotation
                    JOINT RightHandRing3
                    {
                      OFFSET -2.1191 -0.106598 -0.1332
                      CHANNELS 3 Zrotation Xrotation Yrotation
                      End Site
                      {
                        OFFSET -1.8737 -0.2304 -0.0886
                      }
                    }
                  }
                }
                JOINT RightHandPinky1
                {
                  OFFSET -7.9094 -0.601105 -3.4825
                  CHANNELS 3 Zrotation Xrotation Yrotation
                  JOINT RightHandPinky2
                  {
                    OFFSET -2.2874 -0.477005 -0.6314
                    CHANNELS 3 Zrotation Xrotation Yrotation
                    JOINT RightHandPinky3
                    {
                      OFFSET -1.6774 -0.349396 -0.4633
                      CHANNELS 3 Zrotation Xrotation Yrotation
                      End Site
                      {
                        OFFSET -1.4888 -0.4091 -0.3416
                      }
                    }
                  }
                }
                JOINT RightHandThumb1
                {
                  OFFSET -1.833 -1.38751 1.3896
                  CHANNELS 3 Zrotation Xrotation Yrotation
                  JOINT RightHandThumb2
                  {
                    OFFSET -3.41299 -1.12099 2.5732
                    CHANNELS 3 Zrotation Xrotation Yrotation
                    JOINT RightHandThumb3
                    {
                      OFFSET -2.24741 -0.804108 1.6192
                      CHANNELS 3 Zrotation Xrotation Yrotation
                      End Site
                      {
                        OFFSET -1.6527 -0.5689 1.1317
                      }
                    }
                  }
                }
              }
            }
          }
        }
      }
    }
  }
  JOINT RightUpLeg
  {
    OFFSET -9.1966 3.8861 -0.7581
    CHANNELS 3 Zrotation Xrotation Yrotation
    JOINT RightLeg
    {
      OFFSET -0.7359 -41.0265 0
      CHANNELS 3 Zrotation Xrotation Yrotation
      JOINT RightFoot
      {
        OFFSET 0 -40.2855 0
        CHANNELS 3 Zrotation Xrotation Yrotation
        JOINT RightToeBase
        {
          OFFSET 0 -5.6122 11.7359
          CHANNELS 3 Zrotation Xrotation Yrotation
          End Site
          {
            OFFSET 0 0 7.8731
          }
        }
      }
    }
  }
  JOINT LeftUpLeg
  {
    OFFSET 9.1965 3.8864 -0.7581
    CHANNELS 3 Zrotation Xrotation Yrotation
    JOINT LeftLeg
    {
      OFFSET 0.7359 -41.0268 0
      CHANNELS 3 Zrotation Xrotation Yrotation
      JOINT LeftFoot
      {
        OFFSET 0 -40.2855 0
        CHANNELS 3 Zrotation Xrotation Yrotation
        JOINT LeftToeBase
        {
          OFFSET 0 -5.6122 11.7359
          CHANNELS 3 Zrotation Xrotation Yrotation
          End Site
          {
            OFFSET 0 0 7.8731
          }
        }
      }
    }
  }
}
MOTION
Frames:	4
Frame Time:	0.0333333
-0.000617527 0.248388 -65.2567 -180 -89.9981 -180 -0.0627306 8.59698 -0.10809 -0.110745 17.1941 -0.210149 -0.110745 17.1941 -0.210149 3.2712e-006 -11.0597 -9.13022e-007 -3.93962e-008 -26.9219 -9.63332e-009 -2.80083 2.04385 9.81687 -73.8569 2.00669 29.6533 33.0836 8.32221 -77.4778 -4.10409 23.8854 -3.18836 1.59028e-015 -8.05078e-015 1.59028e-015 7.95139e-016 -8.19987e-015 1.59028e-015 2.38542e-015 -8.34896e-015 1.59028e-015 1.59028e-015 -8.05078e-015 1.59028e-015 -0.0146262 -8.80994e-005 -5.42536e-006 3.97569e-016 6.55989e-015 -0 1.59028e-015 -8.05078e-015 1.59028e-015 -0.0187613 -0.00117674 5.52494e-005 3.97569e-016 8.64713e-015 -0 1.59028e-015 -8.05078e-015 1.59028e-015 -0.0122499 -0.00323866 0.000667916 -3.97569e-016 8.39865e-015 3.18055e-015 1.59028e-015 -8.05078e-015 1.59028e-015 7.95139e-016 -8.19987e-015 1.59028e-015 2.38542e-015 -8.34896e-015 1.59028e-015 2.69992 2.27242 -10.4051 74.4919 1.75037 -29.69 -33.2463 7.58912 76.1678 4.15475 24.2799 3.6877 -1.19271e-015 -1.88845e-015 -0 -2.32556e-006 -2.25681e-007 6.10126e-007 -3.97569e-016 -4.37326e-015 -0 -1.19271e-015 -1.88845e-015 -0 0.0149876 -9.08804e-005 6.0499e-009 7.95139e-016 -1.0635e-014 -4.77083e-015 -1.19271e-015 -1.88845e-015 -0 0.0189993 -0.00119113 -5.46198e-005 2.18827e-007 1.15192e-007 9.04012e-007 -1.19271e-015 -1.88845e-015 -0 0.0122733 -0.00324972 -0.000675425 -3.97569e-016 -8.84592e-015 -6.36111e-015 -1.19271e-015 -1.88845e-015 -0 -2.32556e-006 -2.25681e-007 6.10126e-007 -3.97569e-016 -4.37326e-015 -0 -32.5374 -40.6954 1.81044 169.335 77.599 -172.777 -0.282957 15.5588 -7.67577 7.7841e-007 -3.48402e-008 5.00709e-006 33.5528 -40.6726 -0.629178 -169.337 77.5997 172.775 1.21008 15.5053 6.99068 -1.87037e-008 -9.05776e-007 -2.61132e-008 
-0.000646184 0.248534 -65.2567 -180 -89.9981 -180 -0.0640844 8.88477 -0.107111 -0.1132 17.7696 -0.207844 -0.1132 17.7696 -0.207844 9.46087e-007 -11.3222 -7.3992e-007 1.1535e-008 -27.2425 -5.64887e-008 -3.12558 1.32837 9.4174 -73.7172 2.06437 29.6243 33.0835 8.32221 -77.4778 -3.23406 23.4184 -3.69092 1.98785e-015 -1.2424e-015 -1.59028e-015 1.98785e-015 -9.93923e-016 -0 1.98785e-015 -1.19271e-015 1.59028e-015 1.98785e-015 -1.2424e-015 -1.59028e-015 -0.0146171 -8.89739e-005 -1.6994e-007 3.18055e-015 -2.18663e-015 1.27222e-014 1.98785e-015 -1.2424e-015 -1.59028e-015 -0.0187469 -0.00117668 5.05041e-005 7.95139e-016 4.47266e-016 -0 1.98785e-015 -1.2424e-015 -1.59028e-015 -0.0122784 -0.00325159 0.000677643 1.59028e-015 3.67752e-015 1.43125e-014 1.98785e-015 -1.2424e-015 -1.59028e-015 1.98785e-015 -9.93923e-016 -0 1.98785e-015 -1.19271e-015 1.59028e-015 3.12188 1.54106 -9.89412 74.2155 1.86763 -29.6338 -33.2448 7.59567 76.1795 3.24602 23.7163 4.14097 -7.95139e-016 -9.93923e-016 3.18055e-015 -7.95139e-016 -7.95139e-016 -0 7.95139e-016 -9.93923e-016 -0 -7.95139e-016 -9.93923e-016 3.18055e-015 0.0149967 -9.34469e-005 -5.12291e-007 -0 -4.47266e-015 -0 -7.95139e-016 -9.93923e-016 3.18055e-015 0.0189805 -0.00118905 -5.3921e-005 -4.77083e-015 -4.37326e-015 -1.27222e-014 -7.95139e-016 -9.93923e-016 3.18055e-015 0.0122567 -0.00324336 -0.000666689 5.51738e-032 1.98785e-015 -1.59028e-015 -7.95139e-016 -9.93923e-016 3.18055e-015 -7.95139e-016 -7.95139e-016 -0 7.95139e-016 -9.93923e-016 -0 -32.1642 -40.6828 2.27109 169.336 77.5988 -172.776 0.0677707 15.5786 -7.91917 8.74913e-007 2.92366e-009 4.99513e-006 33.2228 -40.6651 -1.03949 -169.337 77.5994 172.775 0.899262 15.5267 7.20459 1.96993e-007 -7.85455e-008 -2.40097e-008 
-0.000675603 0.248682 -65.2567 -180 -89.9981 -180 -0.0654418 9.1723 -0.106111 -0.115686 18.3447 -0.205484 -0.115686 18.3447 -0.205484 -2.56232e-006 -11.5846 6.48533e-007 -1.24523e-007 -27.5628 9.57758e-011 -3.45517 0.615339 9.01405 -73.5775 2.12199 29.5953 33.0836 8.3222 -77.4778 -2.37178 22.9447 -4.18386 -2.33624e-006 1.69387e-007 5.87119e-007 -6.34499e-032 -1.14301e-015 -3.18055e-015 -3.97569e-016 -1.04362e-015 -1.59028e-015 -2.33624e-006 1.69387e-007 5.87119e-007 -0.0145914 -8.63922e-005 2.85039e-006 1.19271e-015 -4.96962e-015 -0 -2.33624e-006 1.69387e-007 5.87119e-007 -0.0187515 -0.00117512 6.20776e-005 -7.95139e-016 8.00108e-015 -1.59028e-015 -2.33624e-006 1.69387e-007 5.87119e-007 -0.012279 -0.00325156 0.000676213 7.95139e-016 -4.96962e-015 1.59028e-015 -2.33624e-006 1.69387e-007 5.87119e-007 -6.34499e-032 -1.14301e-015 -3.18055e-015 -3.97569e-016 -1.04362e-015 -1.59028e-015 3.55011 0.813708 -9.37807 73.9388 1.98466 -29.577 -33.2433 7.60223 76.1912 2.34631 23.1464 4.58242 -7.95139e-016 -2.68359e-015 -1.59028e-015 -3.97569e-016 3.37934e-015 -0 7.95139e-016 3.27995e-015 1.59028e-015 -7.95139e-016 -2.68359e-015 -1.59028e-015 0.0149949 -8.95994e-005 4.68351e-006 -2.15178e-031 3.8763e-015 3.18055e-015 -7.95139e-016 -2.68359e-015 -1.59028e-015 0.0190005 -0.00119032 -5.73367e-005 -1.19271e-015 -3.97569e-016 -0 -7.95139e-016 -2.68359e-015 -1.59028e-015 0.0122439 -0.00324276 -0.000670693 -7.95139e-016 -1.28216e-014 -6.36111e-015 -7.95139e-016 -2.68359e-015 -1.59028e-015 -3.97569e-016 3.37934e-015 -0 7.95139e-016 3.27995e-015 1.59028e-015 -31.7912 -40.6682 2.73151 169.336 77.5985 -172.776 0.418554 15.597 -8.16268 -1.35629e-006 -1.29712e-006 -1.70815e-006 32.8931 -40.6558 -1.44965 -169.337 77.5991 172.775 0.588357 15.547 7.41863 -1.07962e-006 7.68888e-008 -4.97138e-006 
-0.000704234 0.248831 -65.2567 -180 -89.9981 -180 -0.0668022 9.45939 -0.105092 -0.118201 18.9189 -0.203068 -0.118201 18.9189 -0.203068 -1.19239e-006 -11.8467 -3.39233e-007 -6.15385e-008 -27.8828 -8.62348e-008 -3.78963 -0.0951151 8.60677 -73.4378 2.17953 29.566 33.0835 8.32223 -77.4778 -1.51727 22.4645 -4.66715 -7.95139e-016 -5.06901e-015 1.59028e-015 -3.97569e-016 -5.06901e-015 1.59028e-015 -1.19271e-015 -1.83876e-015 -0 -7.95139e-016 -5.06901e-015 1.59028e-015 -0.0146261 -9.04376e-005 2.94256e-006 -1.19271e-015 2.08724e-015 -0 -7.95139e-016 -5.06901e-015 1.59028e-015 -0.0187621 -0.00117721 5.31213e-005 9.65542e-032 -1.73937e-015 3.18055e-015 -7.95139e-016 -5.06901e-015 1.59028e-015 -0.0122821 -0.00325375 0.000676991 3.97569e-016 -6.95746e-016 -0 -7.95139e-016 -5.06901e-015 1.59028e-015 -3.97569e-016 -5.06901e-015 1.59028e-015 -1.19271e-015 -1.83876e-015 -0 3.98464 0.0905784 -8.85689 73.6621 2.10138 -29.5196 -33.2418 7.60877 76.2029 1.45558 22.5705 5.01208 -1.26891e-006 1.05731e-006 3.09574e-007 1.19271e-015 -5.96354e-015 1.59028e-015 -1.26891e-006 1.05731e-006 3.09574e-007 -1.26891e-006 1.05731e-006 3.09574e-007 0.0149946 -8.9726e-005 7.08127e-006 -1.26887e-006 1.05735e-006 3.09436e-007 -1.26891e-006 1.05731e-006 3.09574e-007 0.0190194 -0.00119139 -6.35816e-005 -1.26885e-006 1.05736e-006 3.09411e-007 -1.26891e-006 1.05731e-006 3.09574e-007 0.0122794 -0.00324702 -0.000670253 -1.26887e-006 1.05733e-006 3.09494e-007 -1.26891e-006 1.05731e-006 3.09574e-007 1.19271e-015 -5.96354e-015 1.59028e-015 -1.26891e-006 1.05731e-006 3.09574e-007 -31.4183 -40.6515 3.19177 169.336 77.5979 -172.776 0.769392 15.6139 -8.40629 3.8417e-007 -3.60663e-008 3.15208e-006 32.5636 -40.6447 -1.85954 -169.337 77.5988 172.774 0.277377 15.5661 7.63276 -3.94001e-007 1.57086e-007 4.79209e-008 
